<?xml version='1.0'?>
<!--
Bitly Generated QR Code
v5
37x37
-->
<svg width='720' height='720'
xmlns='http://www.w3.org/2000/svg'
xmlns:xlink='http://www.w3.org/1999/xlink'>
	<g id='gradient-background' >
<linearGradient id="background-gradient" gradientTransform="rotate(90, 0.5, 0.5)"
		x1="0%" y1="0%" x2="100%" y2="0%"><stop offset="0%" stop-color="#00f5e4" stop-opacity="1.00"/>
<stop offset="100%" stop-color="#00f068" stop-opacity="1.00"/>
</linearGradient>
<rect x="0" y="0" width="720" height="720" fill='url(#background-gradient)' />
</g>
<g id='gradient' >
<linearGradient id="pip-gradient" gradientTransform="rotate(90, 0.5, 0.5)"
		x1="0%" y1="0%" x2="100%" y2="0%"><stop offset="0%" stop-color="#d67200" stop-opacity="1.00"/>
<stop offset="100%" stop-color="#5f1007" stop-opacity="1.00"/>
</linearGradient>
<rect x="0" y="0" width="720" height="720" fill='url(#pip-gradient)' mask='url(#gradient-mask)' />
</g>
<g id='pips-and-corners' style='fill:#ffffff' >
<mask id="gradient-mask" x="0" y="0" width="1" height="1" ><path d="M64,224L80,224L96,224L96,240L80,240L80,256L64,256L64,240L64,224M64,272L80,272L80,256L96,256L112,256L128,256L144,256L144,272L128,272L112,272L96,272L96,288L80,288L64,288L64,272M64,304L80,304L96,304L96,288L112,288L112,304L112,320L96,320L96,336L80,336L80,320L64,320L64,304M64,368L80,368L80,384L64,384L64,368M64,400L80,400L96,400L96,416L112,416L112,432L112,448L128,448L128,464L144,464L144,480L160,480L176,480L176,496L160,496L160,512L144,512L144,496L128,496L128,480L112,480L112,464L96,464L96,480L80,480L80,496L80,512L80,528L64,528L64,512L64,496L64,480L64,464L64,448L64,432L80,432L80,448L96,448L96,432L80,432L80,416L64,416L64,400M80,352L96,352L96,336L112,336L112,320L128,320L144,320L144,336L144,352L128,352L112,352L112,368L96,368L80,368L80,352M96,208L112,208L128,208L128,224L144,224L144,240L128,240L112,240L112,224L96,224L96,208M112,512L128,512L144,512L144,528L128,528L112,528L112,512M128,288L144,288L144,304L128,304L128,288M144,192L160,192L176,192L176,208L160,208L144,208L144,192M144,304L160,304L160,320L144,320L144,304M144,368L160,368L160,384L144,384L144,368M144,448L160,448L176,448L192,448L208,448L224,448L240,448L256,448L272,448L272,432L272,416L256,416L240,416L240,432L224,432L208,432L192,432L192,416L192,400L208,400L208,384L208,368L224,368L224,352L240,352L240,336L224,336L224,320L240,320L240,304L256,304L272,304L272,320L256,320L256,336L272,336L272,352L256,352L256,368L240,368L240,384L224,384L224,400L240,400L256,400L256,384L256,368L272,368L272,352L288,352L288,368L288,384L272,384L272,400L288,400L304,400L320,400L320,384L320,368L304,368L304,352L288,352L288,336L304,336L304,320L304,304L320,304L320,320L320,336L320,352L336,352L336,368L352,368L368,368L368,384L352,384L352,400L336,400L336,416L352,416L352,432L368,432L384,432L384,416L400,416L416,416L416,432L400,432L400,448L416,448L432,448L448,448L448,464L432,464L416,464L400,464L384,464L384,480L400,480L416,480L432,480L432,496L432,512L416,512L416,496L400,496L400,512L400,528L384,528L368,528L352,528L336,528L336,512L336,496L352,496L352,512L368,512L384,512L384,496L368,496L368,480L368,464L368,448L352,448L352,464L336,464L336,448L320,448L304,448L304,432L320,432L320,416L304,416L288,416L288,432L288,448L288,464L288,480L288,496L304,496L304,512L288,512L272,512L272,496L256,496L256,512L240,512L240,528L256,528L256,512L272,512L272,528L272,544L256,544L240,544L240,560L240,576L256,576L272,576L272,560L288,560L288,576L288,592L272,592L256,592L256,608L272,608L272,624L256,624L256,640L256,656L240,656L240,640L240,624L224,624L224,608L240,608L240,592L224,592L224,576L208,576L192,576L192,560L208,560L224,560L224,544L208,544L192,544L192,528L208,528L208,512L192,512L176,512L176,496L192,496L192,480L208,480L208,464L192,464L192,480L176,480L176,464L160,464L144,464L144,448M160,224L176,224L176,208L192,208L208,208L208,224L192,224L192,240L176,240L160,240L160,224M160,256L176,256L176,272L160,272L160,256M160,288L176,288L176,304L160,304L160,288M160,320L176,320L176,304L192,304L192,288L192,272L208,272L208,288L208,304L224,304L224,320L208,320L192,320L192,336L176,336L160,336L160,320M160,352L176,352L192,352L192,368L176,368L160,368L160,352M160,384L176,384L176,400L160,400L160,384M160,416L176,416L176,432L160,432L160,416M160,512L176,512L176,528L160,528L160,512M192,64L208,64L208,80L192,80L192,64M192,96L208,96L208,112L192,112L192,96M192,128L208,128L208,144L192,144L192,128M192,160L208,160L208,176L224,176L224,160L208,160L208,144L224,144L240,144L240,160L240,176L240,192L224,192L208,192L192,192L192,176L192,160M192,240L208,240L208,256L192,256L192,240M192,336L208,336L224,336L224,352L208,352L192,352L192,336M208,224L224,224L224,208L240,208L240,224L240,240L224,240L208,240L208,224M208,256L224,256L224,272L208,272L208,256M224,480L224,496L240,496L240,480L256,480L256,464L240,464L240,480L224,480M208,592L224,592L224,608L208,608L208,592M208,640L224,640L224,656L208,656L208,640M224,64L240,64L256,64L256,80L256,96L256,112L272,112L272,128L288,128L304,128L320,128L336,128L336,112L336,96L320,96L320,80L304,80L288,80L272,80L272,64L288,64L304,64L320,64L336,64L336,80L352,80L352,96L352,112L352,128L368,128L368,112L368,96L368,80L384,80L384,96L400,96L400,80L384,80L384,64L400,64L416,64L416,80L432,80L432,64L448,64L448,80L448,96L432,96L432,112L416,112L400,112L384,112L384,128L384,144L368,144L352,144L336,144L320,144L304,144L288,144L288,160L272,160L272,176L272,192L256,192L256,176L256,160L256,144L256,128L240,128L224,128L224,112L240,112L240,96L224,96L224,80L224,64M224,288L240,288L240,304L224,304L224,288M240,192L256,192L256,208L240,208L240,192M240,240L256,240L256,256L240,256L240,240M256,224L272,224L288,224L304,224L304,208L320,208L336,208L336,224L320,224L320,240L336,240L336,256L352,256L352,272L352,288L368,288L368,272L384,272L384,256L384,240L368,240L352,240L352,224L352,208L368,208L368,224L384,224L400,224L400,240L416,240L432,240L448,240L464,240L464,256L464,272L448,272L448,256L432,256L416,256L416,272L400,272L400,288L384,288L384,304L368,304L368,320L352,320L352,304L336,304L320,304L320,288L320,272L320,256L304,256L304,272L288,272L288,256L272,256L272,240L256,240L256,224M256,256L272,256L272,272L256,272L256,256M272,96L288,96L304,96L304,112L288,112L272,112L272,96M272,192L288,192L288,208L272,208L272,192M272,288L288,288L288,304L272,304L272,288M272,320L288,320L288,336L272,336L272,320M272,624L288,624L304,624L320,624L320,640L320,656L304,656L304,640L288,640L288,656L272,656L272,640L272,624M288,160L304,160L304,176L288,176L288,160M288,528L304,528L304,544L320,544L320,528L336,528L336,544L336,560L320,560L304,560L288,560L288,544L288,528M288,592L304,592L320,592L320,608L304,608L288,608L288,592M304,176L320,176L320,192L304,192L304,176M304,464L320,464L336,464L336,480L320,480L304,480L304,464M320,160L336,160L336,176L320,176L320,160M320,608L336,608L336,624L320,624L320,608M336,320L352,320L352,336L352,352L336,352L336,336L336,320M336,576L352,576L352,592L352,608L336,608L336,592L336,576M336,624L352,624L352,640L336,640L336,624M352,160L368,160L368,176L384,176L384,160L384,144L400,144L400,160L400,176L400,192L384,192L384,208L368,208L368,192L352,192L352,176L352,160M352,400L368,400L368,384L384,384L384,368L400,368L400,352L416,352L416,336L416,320L400,320L400,304L400,288L416,288L416,304L432,304L448,304L448,320L448,336L432,336L432,352L432,368L416,368L416,384L432,384L432,400L432,416L416,416L416,400L400,400L384,400L384,416L368,416L352,416L352,400M352,544L368,544L384,544L400,544L416,544L432,544L432,528L448,528L464,528L464,544L480,544L480,560L464,560L464,576L480,576L496,576L496,560L512,560L512,544L512,528L512,512L528,512L528,496L544,496L544,512L560,512L560,496L544,496L544,480L544,464L528,464L528,480L512,480L512,464L512,448L528,448L544,448L560,448L560,464L576,464L576,480L576,496L576,512L592,512L592,528L608,528L608,544L624,544L624,560L608,560L608,576L592,576L592,592L576,592L560,592L560,608L544,608L544,592L528,592L528,608L512,608L512,592L496,592L496,608L496,624L512,624L528,624L528,640L528,656L512,656L512,640L496,640L496,656L480,656L480,640L480,624L480,608L464,608L464,592L448,592L448,576L448,560L432,560L432,576L432,592L416,592L416,576L400,576L400,592L400,608L400,624L384,624L384,608L368,608L368,592L368,576L384,576L384,560L368,560L352,560L352,544M352,608L368,608L368,624L352,624L352,608M352,640L368,640L384,640L384,656L368,656L352,656L352,640M368,320L384,320L400,320L400,336L384,336L384,352L368,352L368,336L368,320M400,192L416,192L432,192L432,176L448,176L448,160L464,160L464,176L480,176L480,192L464,192L464,208L480,208L480,192L496,192L496,208L496,224L512,224L512,208L512,192L496,192L496,176L512,176L512,160L512,144L528,144L528,160L528,176L528,192L528,208L544,208L544,224L528,224L528,240L512,240L496,240L496,256L480,256L480,240L464,240L464,224L448,224L448,208L432,208L432,224L416,224L400,224L400,208L400,192M400,624L416,624L416,640L416,656L400,656L400,640L400,624M416,144L432,144L432,160L432,176L416,176L416,160L416,144M416,608L432,608L448,608L464,608L464,624L448,624L448,640L432,640L432,624L416,624L416,608M432,112L448,112L448,128L448,144L432,144L432,128L432,112M432,368L448,368L464,368L464,384L480,384L480,400L464,400L464,416L448,416L448,400L448,384L432,384L432,368M448,432L464,432L464,448L448,448L448,432M448,464L464,464L464,480L448,480L448,464M448,496L464,496L464,512L448,512L448,496M464,112L480,112L480,128L496,128L496,144L496,160L496,176L480,176L480,160L464,160L464,144L464,128L464,112M464,272L480,272L480,288L496,288L496,272L496,256L512,256L512,272L528,272L544,272L544,288L544,304L544,320L560,320L560,336L544,336L544,352L528,352L528,368L512,368L512,384L512,400L528,400L528,384L528,368L544,368L560,368L560,384L576,384L576,368L576,352L592,352L592,336L608,336L608,320L592,320L592,336L576,336L576,320L560,320L560,304L560,288L576,288L592,288L608,288L608,304L624,304L624,320L640,320L640,304L640,288L656,288L656,304L656,320L656,336L640,336L624,336L624,352L608,352L608,368L608,384L624,384L640,384L656,384L656,400L640,400L640,416L624,416L624,432L608,432L608,416L608,400L592,400L592,416L576,416L560,416L560,400L544,400L544,416L528,416L512,416L512,432L512,448L496,448L496,464L496,480L480,480L480,464L464,464L464,448L480,448L480,432L496,432L496,416L480,416L480,400L496,400L496,384L496,368L496,352L496,336L480,336L464,336L464,320L480,320L496,320L512,320L512,336L528,336L528,320L528,304L512,304L496,304L480,304L464,304L464,288L464,272M464,352L480,352L480,368L464,368L464,352M464,480L480,480L480,496L464,496L464,480M464,512L480,512L480,496L496,496L512,496L512,512L496,512L496,528L480,528L464,528L464,512M480,64L496,64L496,80L480,80L480,64M512,80L528,80L528,96L512,96L512,80M512,112L528,112L528,128L512,128L512,112M528,528L528,544L528,560L528,576L544,576L560,576L576,576L576,560L576,544L576,528L560,528L544,528L528,528M528,608L544,608L544,624L528,624L528,608M544,192L560,192L560,208L544,208L544,192M544,224L560,224L560,208L576,208L576,192L592,192L592,208L608,208L608,224L592,224L576,224L576,240L560,240L560,256L576,256L576,272L560,272L544,272L544,256L544,240L544,224M544,416L560,416L560,432L544,432L544,416M544,544L560,544L560,560L544,560L544,544M544,624L560,624L560,640L560,656L544,656L544,640L544,624M560,432L576,432L576,448L560,448L560,432M560,608L576,608L576,624L560,624L560,608M576,624L592,624L592,608L592,592L608,592L608,608L608,624L608,640L592,640L592,656L576,656L576,640L576,624M592,240L608,240L608,256L592,256L592,240M592,432L608,432L608,448L592,448L592,432M592,480L608,480L624,480L624,496L640,496L640,480L656,480L656,496L656,512L656,528L640,528L640,544L624,544L624,528L608,528L608,512L608,496L592,496L592,480M608,192L624,192L624,208L608,208L608,192M608,224L624,224L624,208L640,208L640,224L656,224L656,240L656,256L640,256L624,256L624,240L608,240L608,224M608,272L624,272L624,288L608,288L608,272M608,576L624,576L624,592L608,592L608,576M624,432L640,432L640,416L656,416L656,432L656,448L656,464L640,464L624,464L624,448L624,432M624,560L640,560L640,544L656,544L656,560L656,576L640,576L624,576L624,560M640,192L656,192L656,208L640,208L640,192M640,352L656,352L656,368L640,368L640,352M640,608L656,608L656,624L656,640L656,656L640,656L640,640L640,624L640,608Z" />
<path d="M64,64L80,64L96,64L112,64L128,64L144,64L160,64L176,64L176,80L176,96L176,112L176,128L176,144L176,160L176,176L160,176L144,176L128,176L112,176L96,176L80,176L64,176L64,160L64,144L64,128L64,112L64,96L64,80L64,64M80,80L80,96L80,112L80,128L80,144L80,160L96,160L112,160L128,160L144,160L160,160L160,144L160,128L160,112L160,96L160,80L144,80L128,80L112,80L96,80L80,80Z" />
<path d="M544,64L560,64L576,64L592,64L608,64L624,64L640,64L656,64L656,80L656,96L656,112L656,128L656,144L656,160L656,176L640,176L624,176L608,176L592,176L576,176L560,176L544,176L544,160L544,144L544,128L544,112L544,96L544,80L544,64M560,80L560,96L560,112L560,128L560,144L560,160L576,160L592,160L608,160L624,160L640,160L640,144L640,128L640,112L640,96L640,80L624,80L608,80L592,80L576,80L560,80Z" />
<path d="M64,544L80,544L96,544L112,544L128,544L144,544L160,544L176,544L176,560L176,576L176,592L176,608L176,624L176,640L176,656L160,656L144,656L128,656L112,656L96,656L80,656L64,656L64,640L64,624L64,608L64,592L64,576L64,560L64,544M80,560L80,576L80,592L80,608L80,624L80,640L96,640L112,640L128,640L144,640L160,640L160,624L160,608L160,592L160,576L160,560L144,560L128,560L112,560L96,560L80,560Z" />
<path d="M96,96L112,96L128,96L144,96L144,112L144,128L144,144L128,144L112,144L96,144L96,128L96,112L96,96Z" />
<path d="M576,96L592,96L608,96L624,96L624,112L624,128L624,144L608,144L592,144L576,144L576,128L576,112L576,96Z" />
<path d="M96,576L112,576L128,576L144,576L144,592L144,608L144,624L128,624L112,624L96,624L96,608L96,592L96,576Z" />
</mask>
</g>
</svg>
